<svg width="67" height="26" viewBox="0 0 67 26" fill="none" xmlns="http://www.w3.org/2000/svg">
<path d="M14.256 12.24C15.672 12.504 16.836 13.212 17.748 14.364C18.66 15.516 19.116 16.836 19.116 18.324C19.116 19.668 18.78 20.856 18.108 21.888C17.46 22.896 16.512 23.688 15.264 24.264C14.016 24.84 12.54 25.128 10.836 25.128H0V2C0 0.895432 0.895431 0 2 0H10.368C12.072 0 13.536 0.276 14.76 0.828C16.008 1.38 16.944 2.148 17.568 3.132C18.216 4.116 18.54 5.232 18.54 6.48C18.54 7.944 18.144 9.168 17.352 10.152C16.584 11.136 15.552 11.832 14.256 12.24ZM5.04 10.368H9.648C10.848 10.368 11.772 10.104 12.42 9.576C13.068 9.024 13.392 8.244 13.392 7.236C13.392 6.228 13.068 5.448 12.42 4.896C11.772 4.344 10.848 4.068 9.648 4.068H5.04V10.368ZM10.116 21.024C11.34 21.024 12.288 20.736 12.96 20.16C13.656 19.584 14.004 18.768 14.004 17.712C14.004 16.632 13.644 15.792 12.924 15.192C12.204 14.568 11.232 14.256 10.008 14.256H5.04V21.024H10.116Z" fill="black"/>
<path d="M26 5.5V25.128H20.96V5.5H23.3272H26Z" fill="black"/>
<path d="M34.8003 20.88L44.463 20.3097C45.7556 20.2334 46.7788 21.3868 46.5491 22.6611L46.1043 25.128H28.9683V21.24L40.2003 4.248H28.9683V0H46.1043V3.888L34.8003 20.88Z" fill="black"/>
<path d="M49.1443 0C50.2489 0 51.1443 0.895431 51.1443 2V15.552C51.1443 17.256 51.5883 18.564 52.4763 19.476C53.3643 20.364 54.6123 20.808 56.2203 20.808C57.8523 20.808 59.1123 20.364 60.0003 19.476C60.8883 18.564 61.3323 17.256 61.3323 15.552V0H64.4083C65.5129 0 66.4083 0.895431 66.4083 2V15.516C66.4083 17.652 65.9404 19.464 65.0043 20.952C64.0923 22.416 62.8563 23.52 61.2963 24.264C59.7603 25.008 58.0443 25.38 56.1483 25.38C54.2763 25.38 52.5723 25.008 51.0363 24.264C49.5243 23.52 48.388 21.964 47.5 20.5C46.612 19.012 46.1043 17.652 46.1043 15.516V0H49.1443Z" fill="black"/>
<path d="M21.0115 0.988513C21.0178 0.440745 21.4636 0 22.0115 0H25.008C25.565 0 26.0146 0.455008 26.008 1.01191L25.9967 1.95461L26.0085 2.98862C26.0148 3.54532 25.5653 4 25.0086 4H21.0229L21 1.99099L21.0115 0.988513Z" fill="#8727E8"/>
</svg>
